<?xml version="1.0" standalone="no"?>
<!DOCTYPE svg PUBLIC "-//W3C//DTD SVG 20010904//EN"
 "http://www.w3.org/TR/2001/REC-SVG-20010904/DTD/svg10.dtd">
<svg version="1.0" xmlns="http://www.w3.org/2000/svg"
 width="512.000000pt" height="512.000000pt" viewBox="0 0 512.000000 512.000000"
 preserveAspectRatio="xMidYMid meet">

<g transform="translate(0.000000,512.000000) scale(0.100000,-0.100000)"
fill="#282f44" stroke="none">
<path d="M3121 5098 c-148 -56 -231 -236 -202 -435 20 -139 76 -274 177 -431
30 -45 54 -85 54 -88 0 -2 -17 4 -37 15 -21 10 -82 33 -136 50 -269 86 -472
78 -621 -24 -103 -70 -152 -164 -144 -280 5 -81 39 -147 112 -220 127 -126
343 -186 616 -171 l115 6 -35 -27 c-178 -141 -326 -320 -381 -461 -18 -44 -23
-79 -23 -152 -1 -86 2 -100 27 -145 15 -27 32 -57 38 -65 9 -13 -5 -44 -71
-155 -219 -374 -395 -806 -501 -1231 -18 -68 -33 -123 -34 -122 -6 7 -505 880
-505 884 0 2 23 -10 51 -28 28 -17 88 -44 133 -59 369 -129 604 202 344 486
-75 83 -190 149 -383 220 -16 6 -6 12 48 31 227 78 381 205 427 353 24 75 25
111 5 177 -19 64 -60 113 -126 149 -70 38 -194 47 -284 20 -107 -31 -220 -96
-317 -182 -28 -24 -52 -42 -55 -40 -2 3 1 22 7 44 18 62 24 259 11 340 -33
193 -156 323 -306 323 -142 0 -258 -113 -300 -292 -18 -78 -19 -238 -1 -338 8
-41 12 -76 11 -78 -2 -2 -20 12 -42 30 -106 94 -226 164 -327 193 -91 27 -215
18 -285 -20 -164 -90 -185 -273 -51 -451 65 -86 209 -178 360 -230 52 -18 61
-24 45 -29 -205 -76 -275 -115 -366 -205 -38 -38 -76 -88 -92 -120 -79 -164
-20 -330 139 -390 83 -31 210 -25 307 15 84 34 201 110 268 172 27 25 49 44
49 42 0 -2 -7 -40 -15 -84 -20 -109 -19 -122 10 -150 53 -54 118 -16 130 76
10 77 41 196 74 286 47 128 48 129 87 129 34 0 34 0 73 -100 67 -175 85 -263
86 -416 0 -134 0 -136 -33 -203 -66 -134 -162 -144 -246 -27 -20 27 -44 51
-53 51 -94 6 -120 -56 -62 -145 127 -191 377 -175 486 31 41 76 54 128 62 240
l6 91 290 -506 c234 -409 290 -513 289 -542 0 -19 -10 -111 -22 -205 -23 -184
-42 -440 -42 -573 0 -75 2 -85 25 -107 29 -30 64 -32 97 -6 24 20 25 24 31
204 27 722 183 1347 489 1957 129 258 208 386 234 381 10 -2 57 -4 104 -5 79
-1 91 2 164 37 65 31 96 55 171 130 97 98 157 182 226 317 l43 85 12 -79 c40
-249 117 -430 234 -547 157 -158 367 -165 494 -17 147 171 102 497 -110 806
-24 34 -42 62 -40 62 2 0 36 -14 76 -30 294 -121 572 -123 733 -5 217 160 164
447 -107 580 -130 64 -206 78 -418 79 -103 1 -184 4 -180 7 4 3 36 28 72 56
224 176 354 394 355 598 0 79 -3 96 -27 141 -31 59 -84 108 -147 138 -127 58
-390 -9 -399 -101 -4 -41 12 -71 45 -84 20 -8 38 -3 92 23 83 40 173 45 217
12 56 -41 69 -69 68 -147 -1 -127 -53 -226 -195 -368 -98 -98 -304 -246 -416
-298 l-51 -24 -39 29 c-21 15 -39 29 -41 30 -11 6 103 312 155 414 35 68 63
133 63 143 0 29 -45 67 -79 67 -37 0 -63 -31 -125 -153 l-45 -88 -6 48 c-35
251 -107 438 -215 556 -118 129 -267 176 -399 125z m184 -147 c90 -42 175
-158 223 -304 48 -143 64 -258 66 -455 l1 -173 -48 -21 -49 -21 -71 78 c-168
183 -305 402 -342 550 -20 78 -19 205 0 252 42 100 128 137 220 94z m-475
-858 c132 -27 305 -101 478 -205 89 -54 84 -44 62 -128 -7 -27 -51 -41 -250
-76 -130 -24 -370 -24 -465 0 -136 33 -228 88 -272 163 -21 36 -25 53 -21 94
14 143 207 206 468 152z m854 -237 c49 -20 76 -60 76 -113 0 -97 -115 -150
-189 -87 -87 73 -46 195 72 213 4 0 22 -5 41 -13z m970 -51 c124 -34 222 -99
255 -168 26 -54 26 -87 1 -137 -67 -131 -303 -157 -584 -64 -87 29 -276 122
-366 181 l-59 38 6 45 c3 25 8 48 12 51 9 10 186 50 286 65 119 17 369 11 449
-11z m-3468 -94 c133 -81 138 -388 12 -711 l-34 -85 -39 0 -39 0 -39 99 c-102
260 -115 513 -35 645 26 41 73 71 113 71 17 0 44 -9 61 -19z m2285 -172 c21
-17 39 -37 39 -45 0 -29 -82 -261 -124 -349 -96 -203 -218 -349 -341 -406
-148 -70 -263 -19 -273 120 -13 175 153 398 428 576 55 36 218 131 229 134 2
1 21 -13 42 -30z m413 -127 c156 -175 254 -331 307 -487 19 -55 24 -91 24
-170 0 -88 -3 -105 -25 -144 -98 -174 -316 -69 -421 203 -53 137 -70 240 -76
462 l-6 200 39 16 c22 9 46 16 55 17 8 1 55 -43 103 -97z m-3434 -172 c138
-47 299 -178 438 -359 49 -63 50 -64 33 -93 -16 -28 -17 -29 -76 -22 -95 10
-253 49 -341 83 -179 69 -314 196 -314 296 0 99 118 143 260 95z m1546 4 c35
-17 64 -58 64 -91 0 -73 -71 -168 -174 -234 -104 -68 -312 -134 -481 -153 -59
-7 -60 -7 -77 23 l-17 31 59 75 c132 166 283 290 411 340 77 29 165 33 215 9z
m-808 -520 c48 -54 10 -136 -63 -136 -69 0 -108 74 -69 130 33 48 92 50 132 6z
m-266 -172 c17 -28 17 -29 -29 -88 -169 -220 -377 -369 -529 -382 -188 -15
-233 135 -84 278 92 87 267 163 466 200 142 26 156 25 176 -8z m575 8 c275
-49 477 -159 543 -295 16 -33 21 -56 17 -82 -23 -141 -227 -136 -431 11 -70
51 -202 183 -269 270 -46 59 -46 60 -29 88 20 34 26 34 169 8z"/>
</g>
</svg>
