<svg xmlns="http://www.w3.org/2000/svg" xmlns:xlink="http://www.w3.org/1999/xlink" version="1.1" viewBox="40 515 1000 1250" x="0px" y="0px"><g><g style="" fill="rgb(0,0,0)" fill-opacity="1.0" stroke-linejoin=" miter"><path d="M41.889984,75.18514L41.889984,75.18514L41.889984,75.186066C41.889984,76.22989,41.043804,77.076065,39.999985,77.076065C38.956165,77.076065,38.109985,76.22989,38.109985,75.186066L38.109985,75.186066L38.109985,75.18514C38.109985,74.14133,38.956165,73.29514,39.999985,73.29514C41.043804,73.29514,41.889984,74.14133,41.889984,75.18514 Z"/></g><g style="" fill="rgb(0,0,0)" fill-opacity="1.0" stroke-linejoin=" miter"><path d="M1104.8486,113.71661L1104.8486,113.71661L1104.8478,113.71707C1103.9438,114.23898,1102.788,113.92926,1102.266,113.02528C1101.7441,112.12131,1102.0538,110.96541,1102.9578,110.4435L1102.9578,110.4435L1102.9586,110.44304C1103.8625,109.92113,1105.0184,110.23085,1105.5404,111.13483C1106.0623,112.0388,1105.7526,113.1947,1104.8486,113.71661 Z"/></g><g style="" fill="rgb(0,0,0)" fill-opacity="1.0" stroke-linejoin=" miter"><path d="M1602.9585,1053.5315L1602.9585,1053.5315L1602.9578,1053.531C1602.0537,1053.0092,1601.744,1051.8533,1602.2659,1050.9492C1602.7878,1050.0453,1603.9437,1049.7356,1604.8477,1050.2574L1604.8477,1050.2574L1604.8485,1050.2579C1605.7524,1050.7799,1606.0623,1051.9358,1605.5403,1052.8397C1605.0184,1053.7437,1603.8624,1054.0535,1602.9585,1053.5315 Z"/></g><g style="" fill="rgb(0,0,0)" fill-opacity="1.0" stroke-linejoin=" miter"><path d="M1038.11,1954.8148L1038.11,1954.8148L1038.11,1954.814C1038.11,1953.7701,1038.9562,1952.924,1040.0,1952.924C1041.0438,1952.924,1041.89,1953.7701,1041.89,1954.814L1041.89,1954.814L1041.89,1954.8148C1041.89,1955.8586,1041.0438,1956.7048,1040.0,1956.7048C1038.9562,1956.7048,1038.11,1955.8586,1038.11,1954.8148 Z"/></g><g style="" fill="rgb(0,0,0)" fill-opacity="1.0" stroke-linejoin=" miter"><path d="M-522.95856,976.4685L-522.95856,976.4685L-522.95776,976.469C-522.0538,976.9909,-521.7441,978.1468,-522.266,979.0508C-522.7879,979.9548,-523.9438,980.26447,-524.8478,979.74255L-524.8478,979.74255L-524.8486,979.7421C-525.75256,979.2202,-526.06226,978.0643,-525.54034,977.1603C-525.01843,976.25635,-523.86255,975.9466,-522.95856,976.4685 Z"/></g><g style="" fill="rgb(0,0,0)" fill-opacity="1.0" stroke-linejoin=" miter"><path d="M-24.848495,1916.2833L-24.848495,1916.2833L-24.847694,1916.2828C-23.943718,1915.761,-22.787819,1916.0707,-22.265907,1916.9746C-21.744,1917.8787,-22.053719,1919.0345,-22.957695,1919.5564L-22.957695,1919.5564L-22.958496,1919.5569C-23.862465,1920.0789,-25.018375,1919.769,-25.540283,1918.8651C-26.062195,1917.9612,-25.752464,1916.8052,-24.848495,1916.2833 Z"/></g><g style="" fill="rgb(0,0,0)" fill-opacity="1.0" stroke-linejoin=" miter"><path d="M207.5926,875.64813L207.5926,875.64813L419.62964,875.64905C421.41943,875.64905,422.87036,877.1,422.87036,878.8898L422.87036,878.8898L422.87036,1326.1112C422.87036,1327.901,421.41943,1329.3519,419.62964,1329.3519L419.62964,1329.3519L207.5926,1329.3528C206.73311,1329.3528,205.90881,1329.0114,205.30104,1328.4036C204.69327,1327.7959,204.35184,1326.9716,204.35184,1326.112L204.35184,1326.112L204.35184,878.88885C204.35184,878.02936,204.69327,877.2051,205.30104,876.59735C205.90881,875.98956,206.73311,875.64813,207.5926,875.64813L207.5926,875.64813 M207.59258,882.1296L210.83333,878.88885L210.83333,1326.112L207.59258,1322.8713L419.62964,1322.8705L416.38892,1326.1112L416.38892,878.8898L419.62964,882.1305L207.59258,882.1296 Z"/></g><g style="" fill="rgb(0,0,0)" fill-opacity="1.0" stroke-linejoin=" miter"><path d="M494.47864,657.45074L494.47864,657.45074L600.49634,841.0807C601.39124,842.6307,600.86017,844.61273,599.3101,845.5076L599.3101,845.5076L212.005,1069.1182C210.45496,1070.0132,208.47302,1069.4822,207.57812,1067.9321L207.57812,1067.9321L101.55884,884.30304C101.12915,883.5587,101.01257,882.67413,101.23511,881.84393C101.45752,881.01373,102.00061,880.30585,102.744995,879.8761L102.744995,879.8761L490.05164,656.2645C490.79602,655.8348,491.68054,655.7183,492.51074,655.94086C493.341,656.16327,494.04883,656.7064,494.47864,657.45074L494.47864,657.45074 M488.86548,660.69147L493.29236,661.8777L105.98572,885.48926L107.171875,881.0623L213.19116,1064.6914L208.76428,1063.5051L596.0694,839.8945L594.88324,844.3214L488.86548,660.69147 Z"/></g><g style="" fill="rgb(0,0,0)" fill-opacity="1.0" stroke-linejoin=" miter"><path d="M826.8859,796.8027L826.8859,796.8027L720.8666,980.43164C719.9717,981.9817,717.98975,982.5127,716.4397,981.6178L716.4397,981.6178L329.13464,758.0071C327.5846,757.1122,327.05347,755.13025,327.94836,753.5802L327.94836,753.5802L433.9662,569.9503C434.39587,569.206,435.10376,568.66284,435.93408,568.44037C436.76416,568.2179,437.6488,568.33435,438.3932,568.7641L438.3932,568.7641L825.6997,792.37573C826.4441,792.8054,826.9872,793.5133,827.20966,794.3435C827.4321,795.1737,827.3157,796.0583,826.8859,796.8027L826.8859,796.8027 M821.2728,793.5619L822.459,797.98883L435.15247,574.37726L439.57935,573.19104L333.56152,756.8209L332.37537,752.39404L719.6804,976.00476L715.25354,977.1909L821.2728,793.5619 Z"/></g><g style="" fill="rgb(0,0,0)" fill-opacity="1.0" stroke-linejoin=" miter"><path d="M872.4074,1154.3518L872.4074,1154.3518L660.37036,1154.351C658.58057,1154.351,657.12964,1152.9,657.12964,1151.1102L657.12964,1151.1102L657.12964,703.8888C657.12964,702.099,658.58057,700.6481,660.37036,700.6481L660.37036,700.6481L872.4074,700.6472C873.2669,700.6472,874.0912,700.98865,874.699,701.59644C875.30676,702.2041,875.6482,703.02844,875.6482,703.88794L875.6482,703.88794L875.6482,1151.1111C875.6482,1151.9707,875.30676,1152.7949,874.699,1153.4026C874.0912,1154.0105,873.2669,1154.3518,872.4074,1154.3518L872.4074,1154.3518 M872.4074,1147.8704L869.1667,1151.1111L869.1667,703.88794L872.4074,707.12866L660.37036,707.1295L663.6111,703.8888L663.6111,1151.1102L660.37036,1147.8695L872.4074,1147.8704 Z"/></g><g style="" fill="rgb(0,0,0)" fill-opacity="1.0" stroke-linejoin=" miter"><path d="M253.11407,1233.1973L253.11407,1233.1973L359.13336,1049.5684C360.02826,1048.0183,362.01025,1047.4872,363.5603,1048.3821L363.5603,1048.3821L750.8654,1271.9928C752.41547,1272.8877,752.9465,1274.8696,752.0516,1276.4197L752.0516,1276.4197L646.03375,1460.0496C645.60406,1460.794,644.8962,1461.3372,644.066,1461.5596C643.2359,1461.782,642.35126,1461.6655,641.6069,1461.2358L641.6069,1461.2358L254.30023,1237.6243C253.55585,1237.1946,253.01276,1236.4867,252.79034,1235.6565C252.56787,1234.8262,252.68427,1233.9417,253.11407,1233.1973L253.11407,1233.1973 M258.7271,1236.438L257.54095,1232.0111L644.8476,1455.6227L640.4207,1456.8088L746.43854,1273.179L747.6247,1277.606L360.31958,1053.9952L364.74646,1052.8091L258.7271,1236.438 Z"/></g><g style="" fill="rgb(0,0,0)" fill-opacity="1.0" stroke-linejoin=" miter"><path d="M585.5214,1372.5491L585.5214,1372.5491L479.50366,1188.9192C478.60876,1187.3691,479.1399,1185.3872,480.68994,1184.4923L480.68994,1184.4923L867.995,960.8816C869.54504,959.9867,871.5271,960.5177,872.422,962.06775L872.422,962.06775L978.4413,1145.6968C978.871,1146.4412,978.9873,1147.3257,978.7649,1148.156C978.5425,1148.9861,977.9994,1149.694,977.255,1150.1238L977.255,1150.1238L589.94836,1373.7354C589.204,1374.165,588.31946,1374.2815,587.4893,1374.0591C586.65906,1373.8365,585.9512,1373.2935,585.5214,1372.5491L585.5214,1372.5491 M591.1345,1369.3083L586.70764,1368.1222L974.0143,1144.5105L972.8281,1148.9375L866.80884,965.3085L871.2357,966.4946L483.93066,1190.1053L485.11682,1185.6785L591.1345,1369.3083 Z"/></g><g style="" fill="rgb(0,0,0)" fill-opacity="1.0" stroke-linejoin=" miter"><path d="M43.240726,75.18514L43.240726,75.18514L43.240726,75.186066L36.759243,75.186066L36.759243,75.18514L43.240726,75.18514L43.240726,75.186066L36.759243,75.186066L36.759243,75.18514L43.240726,75.18514 M36.759243,75.18514C36.759243,73.39533,38.210175,71.944405,39.999985,71.944405C41.789795,71.944405,43.240726,73.39533,43.240726,75.18514L43.240726,75.18514L43.240726,75.186066C43.240726,76.97588,41.789795,78.42681,39.999985,78.42681C38.210175,78.42681,36.759243,76.97588,36.759243,75.186066L36.759243,75.186066L36.759243,75.18514C36.759243,73.39533,38.210175,71.944405,39.999985,71.944405C41.789795,71.944405,43.240726,73.39533,43.240726,75.18514L43.240726,75.18514L43.240726,75.186066C43.240726,76.97588,41.789795,78.42681,39.999985,78.42681C38.210175,78.42681,36.759243,76.97588,36.759243,75.186066L36.759243,75.186066L36.759243,75.18514 Z"/></g><g style="" fill="rgb(0,0,0)" fill-opacity="1.0" stroke-linejoin=" miter"><path d="M1105.5239,114.88639L1105.5239,114.88639L1105.5232,114.886856L1102.2825,109.27372L1102.2832,109.27326L1105.5239,114.88639L1105.5232,114.886856L1102.2825,109.27372L1102.2832,109.27326L1105.5239,114.88639 M1102.2832,109.27326C1103.8333,108.37836,1105.8153,108.90944,1106.7102,110.45946C1107.6051,112.009476,1107.074,113.991486,1105.5239,114.88639L1105.5239,114.88639L1105.5232,114.886856C1103.9731,115.78176,1101.9912,115.25068,1101.0962,113.70066C1100.2013,112.150635,1100.7324,110.16863,1102.2825,109.27372L1102.2825,109.27372L1102.2832,109.27326C1103.8333,108.37836,1105.8153,108.90944,1106.7102,110.45946C1107.6051,112.009476,1107.074,113.991486,1105.5239,114.88639L1105.5239,114.88639L1105.5232,114.886856C1103.9731,115.78176,1101.9912,115.25068,1101.0962,113.70066C1100.2013,112.150635,1100.7324,110.16863,1102.2825,109.27372L1102.2825,109.27372L1102.2832,109.27326 Z"/></g><g style="" fill="rgb(0,0,0)" fill-opacity="1.0" stroke-linejoin=" miter"><path d="M1602.2832,1054.7013L1602.2832,1054.7013L1602.2823,1054.7008L1605.5231,1049.0878L1605.5239,1049.0881L1602.2832,1054.7013L1602.2823,1054.7008L1605.5231,1049.0878L1605.5239,1049.0881L1602.2832,1054.7013 M1605.5239,1049.0881C1607.0739,1049.983,1607.605,1051.9651,1606.7101,1053.5151C1605.8152,1055.0652,1603.8331,1055.5962,1602.2832,1054.7013L1602.2832,1054.7013L1602.2823,1054.7008C1600.7323,1053.8059,1600.2013,1051.824,1601.0962,1050.2739C1601.9911,1048.7239,1603.973,1048.1927,1605.5231,1049.0878L1605.5231,1049.0878L1605.5239,1049.0881C1607.0739,1049.983,1607.605,1051.9651,1606.7101,1053.5151C1605.8152,1055.0652,1603.8331,1055.5962,1602.2832,1054.7013L1602.2832,1054.7013L1602.2823,1054.7008C1600.7323,1053.8059,1600.2013,1051.824,1601.0962,1050.2739C1601.9911,1048.7239,1603.973,1048.1927,1605.5231,1049.0878L1605.5231,1049.0878L1605.5239,1049.0881 Z"/></g><g style="" fill="rgb(0,0,0)" fill-opacity="1.0" stroke-linejoin=" miter"><path d="M1036.7593,1954.8148L1036.7593,1954.8148L1036.7593,1954.814L1043.2407,1954.814L1043.2407,1954.8148L1036.7593,1954.8148L1036.7593,1954.814L1043.2407,1954.814L1043.2407,1954.8148L1036.7593,1954.8148 M1043.2407,1954.8148C1043.2407,1956.6046,1041.7898,1958.0555,1040.0,1958.0555C1038.2102,1958.0555,1036.7593,1956.6046,1036.7593,1954.8148L1036.7593,1954.8148L1036.7593,1954.814C1036.7593,1953.0242,1038.2102,1951.5732,1040.0,1951.5732C1041.7898,1951.5732,1043.2407,1953.0242,1043.2407,1954.814L1043.2407,1954.814L1043.2407,1954.8148C1043.2407,1956.6046,1041.7898,1958.0555,1040.0,1958.0555C1038.2102,1958.0555,1036.7593,1956.6046,1036.7593,1954.8148L1036.7593,1954.8148L1036.7593,1954.814C1036.7593,1953.0242,1038.2102,1951.5732,1040.0,1951.5732C1041.7898,1951.5732,1043.2407,1953.0242,1043.2407,1954.814L1043.2407,1954.814L1043.2407,1954.8148 Z"/></g><g style="" fill="rgb(0,0,0)" fill-opacity="1.0" stroke-linejoin=" miter"><path d="M-522.2832,975.29877L-522.2832,975.29877L-522.2824,975.2992L-525.52313,980.91235L-525.5239,980.91187L-522.2832,975.29877L-522.2824,975.2992L-525.52313,980.91235L-525.5239,980.91187L-522.2832,975.29877 M-525.5239,980.91187C-527.074,980.01697,-527.60504,978.035,-526.71014,976.4849C-525.81525,974.93494,-523.83325,974.4038,-522.2832,975.29877L-522.2832,975.29877L-522.2824,975.2992C-520.73236,976.1941,-520.2013,978.17615,-521.0962,979.72614C-521.9911,981.2762,-523.97314,981.80725,-525.52313,980.91235L-525.52313,980.91235L-525.5239,980.91187C-527.074,980.01697,-527.60504,978.035,-526.71014,976.4849C-525.81525,974.93494,-523.83325,974.4038,-522.2832,975.29877L-522.2832,975.29877L-522.2824,975.2992C-520.73236,976.1941,-520.2013,978.17615,-521.0962,979.72614C-521.9911,981.2762,-523.97314,981.80725,-525.52313,980.91235L-525.52313,980.91235L-525.5239,980.91187 Z"/></g><g style="" fill="rgb(0,0,0)" fill-opacity="1.0" stroke-linejoin=" miter"><path d="M-25.523869,1915.1135L-25.523869,1915.1135L-25.523067,1915.113L-22.282326,1920.7262L-22.283127,1920.7267L-25.523869,1915.1135L-25.523067,1915.113L-22.282326,1920.7262L-22.283127,1920.7267L-25.523869,1915.1135 M-22.283127,1920.7267C-23.833149,1921.6216,-25.815155,1921.0905,-26.71006,1919.5405C-27.604965,1917.9905,-27.07389,1916.0084,-25.523869,1915.1135L-25.523869,1915.1135L-25.523067,1915.113C-23.973042,1914.2181,-21.991035,1914.7493,-21.09613,1916.2993C-20.201225,1917.8492,-20.7323,1919.8313,-22.282326,1920.7262L-22.282326,1920.7262L-22.283127,1920.7267C-23.833149,1921.6216,-25.815155,1921.0905,-26.71006,1919.5405C-27.604965,1917.9905,-27.07389,1916.0084,-25.523869,1915.1135L-25.523869,1915.1135L-25.523067,1915.113C-23.973042,1914.2181,-21.991035,1914.7493,-21.09613,1916.2993C-20.201225,1917.8492,-20.7323,1919.8313,-22.282326,1920.7262L-22.282326,1920.7262L-22.283127,1920.7267 Z"/></g></g><text x="40" y="1530" fill="#000000" font-size="5px" font-weight="bold" font-family="'Helvetica Neue', Helvetica, Arial-Unicode, Arial, Sans-serif">Created by Ria Fitriana</text><text x="40" y="1535" fill="#000000" font-size="5px" font-weight="bold" font-family="'Helvetica Neue', Helvetica, Arial-Unicode, Arial, Sans-serif">from the Noun Project</text></svg>